<svg width="19.098" xmlns="http://www.w3.org/2000/svg" height="19.575" id="screenshot-ea2646e4-fb6c-807f-8007-195a9c166834" viewBox="0 0 19.098 19.575" xmlns:xlink="http://www.w3.org/1999/xlink" fill="none" version="1.1"><g id="shape-ea2646e4-fb6c-807f-8007-195a9c166834" width="26" height="26" rx="0" ry="0" style="fill: rgb(0, 0, 0);"><g id="shape-ea2646e4-fb6c-807f-8007-195a9c166835" style="display: none;"><g class="fills" id="fills-ea2646e4-fb6c-807f-8007-195a9c166835"><rect width="19.097560975609667" height="19.575000000004366" x="0" transform="matrix(1.000000, 0.000000, 0.000000, 1.000000, 0.000000, 0.000000)" style="fill: rgb(3, 20, 22); fill-opacity: 1;" ry="0" fill="none" rx="0" y="0"/></g></g><g id="shape-ea2646e4-fb6c-807f-8007-195a9c166836"><g class="fills" id="fills-ea2646e4-fb6c-807f-8007-195a9c166836"><path d="M14.75776481628418,0.18984374403953552C14.31245231628418,0.18203124403953552,13.88081169128418,0.3597656190395355,13.56440544128418,0.6839843988418579L12.83003044128418,1.459375023841858L17.67280387878418,6.447656154632568L18.40717887878418,5.670312404632568C18.72749137878418,5.344140529632568,18.90717887878418,4.898828029632568,18.90717887878418,4.435937404632568C18.90717887878418,3.9730467796325684,18.72749137878418,3.5277342796325684,18.40717887878418,3.2015624046325684L15.97553825378418,0.7054687738418579C15.65131950378418,0.3773437440395355,15.21479606628418,0.18984374403953552,14.75776481628418,0.18984374403953552M12.00385856628418,2.1410155296325684L10.85639762878418,3.2718749046325684L15.90620231628418,8.447656631469727L17.07710075378418,7.342187404632568ZM10.12104606628418,4.094140529632568L2.1806163787841797,12.162500381469727C1.9979991912841797,12.260156631469727,1.8651866912841797,12.430078506469727,1.8134288787841797,12.633203506469727L0.11421017348766327,18.541406631469727C0.03608517348766327,18.801172256469727,0.10444454848766327,19.082422256469727,0.29194456338882446,19.275781631469727C0.47944456338882446,19.467187881469727,0.7558117508888245,19.539453506469727,1.0087413787841797,19.457422256469727L6.77046012878418,17.717187881469727C7.03706169128418,17.676172256469727,7.25776481628418,17.484766006469727,7.34467887878418,17.223047256469727L15.17182731628418,9.269922256469727L14.09370231628418,8.166406631469727L6.05952262878418,16.424219131469727L2.8222179412841797,17.387109756469727L2.1337413787841797,16.682031631469727L3.1210460662841797,13.223047256469727L11.08588981628418,5.082421779632568ZM11.86518669128418,5.904687404632568L3.8085460662841797,14.187891006469727L4.97944450378418,14.447656631469727L5.14057731628418,15.553125381469727L13.21967887878418,7.295312404632568Z" style="fill: rgb(3, 20, 22); fill-opacity: 1;"/></g></g></g></svg>