<svg width="18.333" xmlns="http://www.w3.org/2000/svg" height="14.04" id="screenshot-ea2646e4-fb6c-807f-8007-195a9c166842" viewBox="0 0 18.333 14.04" xmlns:xlink="http://www.w3.org/1999/xlink" fill="none" version="1.1"><g id="shape-ea2646e4-fb6c-807f-8007-195a9c166842" width="24" height="24" rx="0" ry="0" style="fill: rgb(0, 0, 0);"><g id="shape-ea2646e4-fb6c-807f-8007-195a9c166848"><g class="fills" id="fills-ea2646e4-fb6c-807f-8007-195a9c166848"><path d="M18.334789276123047,7.038360595703125C18.336742401123047,7.624298095703125,18.082836151123047,8.180938720703125,17.637523651123047,8.559844970703125L11.771312713623047,13.583282470703125C11.482250213623047,13.829376220703125,11.128734588623047,13.985626220703125,10.753734588623047,14.034454345703125C10.665843963623047,14.042266845703125,10.576976776123047,14.042266845703125,10.488109588623047,14.034454345703125C10.200023651123047,14.036407470703125,9.913890838623047,13.971954345703125,9.654125213623047,13.848907470703125C9.312328338623047,13.692657470703125,9.021312713623047,13.446563720703125,8.810375213623047,13.134063720703125C8.610179901123047,12.815704345703125,8.498851776123047,12.448516845703125,8.489086151123047,12.071563720703125L8.489086151123047,9.118438720703125L3.283031702041626,13.565704345703125C2.995922327041626,13.811798095703125,2.641430139541626,13.970001220703125,2.265453577041626,14.014923095703125C2.176586389541626,14.024688720703125,2.087719202041626,14.024688720703125,1.9988518953323364,14.014923095703125C1.7107659578323364,14.016876220703125,1.4265862703323364,13.954376220703125,1.1648675203323364,13.831329345703125C0.8250237703323364,13.677032470703125,0.5359612703323364,13.428985595703125,0.3318597376346588,13.116485595703125C0.12385191023349762,12.800079345703125,0.009594098664820194,12.430938720703125,0.0008050363976508379,12.053985595703125L0.0008050363976508379,1.970000982284546C0.01935972459614277,1.202422857284546,0.4695550501346588,0.5090635418891907,1.1648675203323364,0.1809385120868683C1.8670159578323364,-0.1393739879131317,2.691234827041626,-0.029998986050486565,3.283031702041626,0.4660947620868683L8.489086151123047,4.923126220703125L8.489086151123047,1.979766607284546C8.496898651123047,1.407500982284546,8.749828338623047,0.8664854168891907,9.182445526123047,0.4934385120868683C9.615062713623047,0.12039163708686829,10.187328338623047,-0.049530237913131714,10.753734588623047,0.026641638949513435C11.124828338623047,0.07937601208686829,11.473461151123047,0.2356260120868683,11.761547088623047,0.4758603870868683L17.637523651123047,5.507110595703125C17.856273651123047,5.696563720703125,18.032054901123047,5.927032470703125,18.151195526123047,6.186798095703125C18.272289276123047,6.454376220703125,18.335765838623047,6.745391845703125,18.334789276123047,7.038360595703125" style="fill: rgb(3, 20, 22); fill-opacity: 1;"/></g></g></g></svg>