<svg width="24" xmlns="http://www.w3.org/2000/svg" height="24" id="screenshot-86860207-4532-8062-8007-71f286e0648a" viewBox="0 0 24 24" xmlns:xlink="http://www.w3.org/1999/xlink" fill="none" version="1.1"><g id="shape-86860207-4532-8062-8007-71f286e0648a" width="24" height="24" rx="0" ry="0" style="fill: rgb(0, 0, 0);"><g id="shape-86860207-4532-8062-8007-71f286edb040" style="display: none;"><g class="fills" id="fills-86860207-4532-8062-8007-71f286edb040"><rect width="24" height="24" x="0" transform="matrix(1.000000, 0.000000, 0.000000, 1.000000, 0.000000, 0.000000)" style="fill: none;" ry="0" fill="none" rx="0" y="0"/></g></g><g id="shape-86860207-4532-8062-8007-71f286ef5977"><g class="fills" id="fills-86860207-4532-8062-8007-71f286ef5977"><path d="M11.830078125,14L11.830078125,13.37890625C11.8291015625,12.546875,12.2724609375,11.775390625,12.994140625,11.359375C14.1201171875,10.69921875,14.5078125,9.302734375,13.84765625,8.17578125C13.1884765625,7.05078125,11.791015625,6.662109375,10.6650390625,7.322265625C9.96484375,7.75,9.5,8.486328125,9.5,9.341796875M12,17L11.9921875,17M22,12C22,6.4765625,17.5234375,2,12,2C6.4765625,2,2,6.4765625,2,12C2,17.5234375,6.4765625,22,12,22C17.5234375,22,22,17.5234375,22,12" fill="none" stroke-linecap="round" stroke-linejoin="round" stroke-miterlimit="10" style="fill: none;"/></g><g fill="none" stroke-linecap="round" stroke-linejoin="round" stroke-miterlimit="10" id="strokes-249c09c9-2506-80b4-8007-71f39c74d770-86860207-4532-8062-8007-71f286ef5977" class="strokes"><g class="stroke-shape"><path d="M11.830078125,14L11.830078125,13.37890625C11.8291015625,12.546875,12.2724609375,11.775390625,12.994140625,11.359375C14.1201171875,10.69921875,14.5078125,9.302734375,13.84765625,8.17578125C13.1884765625,7.05078125,11.791015625,6.662109375,10.6650390625,7.322265625C9.96484375,7.75,9.5,8.486328125,9.5,9.341796875M12,17L11.9921875,17M22,12C22,6.4765625,17.5234375,2,12,2C6.4765625,2,2,6.4765625,2,12C2,17.5234375,6.4765625,22,12,22C17.5234375,22,22,17.5234375,22,12" style="fill: none; stroke-width: 1.5; stroke: rgb(3, 20, 22); stroke-opacity: 1;"/></g></g></g></g></svg>