<svg width="24" xmlns="http://www.w3.org/2000/svg" height="24" id="screenshot-2f2ed196-18b4-8087-8007-641951d9c402" viewBox="0 0 24 24" xmlns:xlink="http://www.w3.org/1999/xlink" fill="none" version="1.1"><g id="shape-2f2ed196-18b4-8087-8007-641951d9c402" width="24" height="24" rx="0" ry="0" style="fill: rgb(0, 0, 0);"><g id="shape-2f2ed196-18b4-8087-8007-641951df3cfb" style="display: none;"><g class="fills" id="fills-2f2ed196-18b4-8087-8007-641951df3cfb"><rect width="24" height="24" x="0" transform="matrix(1.000000, 0.000000, 0.000000, 1.000000, 0.000000, 0.000000)" style="fill: none;" ry="0" fill="none" rx="0" y="0"/></g></g><g id="shape-2f2ed196-18b4-8087-8007-641951e028f4"><g class="fills" id="fills-2f2ed196-18b4-8087-8007-641951e028f4"><path d="M12,11L12,16M12,21C7.029296875,21,3,16.970703125,3,12C3,7.029296875,7.029296875,3,12,3C16.970703125,3,21,7.029296875,21,12C21,16.970703125,16.970703125,21,12,21M12.0498046875,8L12.0498046875,8.099609375L11.9501953125,8.099609375L11.9501953125,8Z" fill="none" stroke-linecap="round" stroke-linejoin="round" style="fill: none;"/></g><g fill="none" stroke-linecap="round" stroke-linejoin="round" id="strokes-2f4e441c-f73f-8081-8007-6419c7d819cb-2f2ed196-18b4-8087-8007-641951e028f4" class="strokes"><g class="stroke-shape"><path d="M12,11L12,16M12,21C7.029296875,21,3,16.970703125,3,12C3,7.029296875,7.029296875,3,12,3C16.970703125,3,21,7.029296875,21,12C21,16.970703125,16.970703125,21,12,21M12.0498046875,8L12.0498046875,8.099609375L11.9501953125,8.099609375L11.9501953125,8Z" style="fill: none; stroke-width: 2; stroke: rgb(122, 163, 235); stroke-opacity: 0.75;"/></g></g></g></g></svg>