<svg width="24" xmlns="http://www.w3.org/2000/svg" height="24" id="screenshot-86860207-4532-8062-8007-71f3192bcced" viewBox="0 0 24 24" xmlns:xlink="http://www.w3.org/1999/xlink" fill="none" version="1.1"><g id="shape-86860207-4532-8062-8007-71f3192bcced" width="24" height="24" rx="0" ry="0" style="fill: rgb(0, 0, 0);"><g id="shape-86860207-4532-8062-8007-71f31932d238" style="display: none;"><g class="fills" id="fills-86860207-4532-8062-8007-71f31932d238"><rect width="24" height="24" x="0" transform="matrix(1.000000, 0.000000, 0.000000, 1.000000, 0.000000, 0.000000)" style="fill: none;" ry="0" fill="none" rx="0" y="0"/></g></g><g id="shape-86860207-4532-8062-8007-71f31933c9f2"><g class="fills" id="fills-86860207-4532-8062-8007-71f31933c9f2"><path d="M8,12L16,12M9,8L6,8C3.791015625,8,2,9.791015625,2,12C2,14.208984375,3.791015625,16,6,16L9,16M15,8L18,8C20.208984375,8,22,9.791015625,22,12C22,14.208984375,20.208984375,16,18,16L15,16" fill="none" stroke-linecap="round" stroke-linejoin="round" style="fill: none;"/></g><g fill="none" stroke-linecap="round" stroke-linejoin="round" id="strokes-0b4a1267-e23d-800c-8007-71f3f0cb8b18-86860207-4532-8062-8007-71f31933c9f2" class="strokes"><g class="stroke-shape"><path d="M8,12L16,12M9,8L6,8C3.791015625,8,2,9.791015625,2,12C2,14.208984375,3.791015625,16,6,16L9,16M15,8L18,8C20.208984375,8,22,9.791015625,22,12C22,14.208984375,20.208984375,16,18,16L15,16" style="fill: none; stroke-width: 1.5; stroke: rgb(3, 20, 22); stroke-opacity: 1;"/></g></g></g></g></svg>