<svg width="24" xmlns="http://www.w3.org/2000/svg" height="24" id="screenshot-2f2ed196-18b4-8087-8007-640901082c80" viewBox="0 0 24 24" xmlns:xlink="http://www.w3.org/1999/xlink" fill="none" version="1.1"><g id="shape-2f2ed196-18b4-8087-8007-640901082c80" width="24" height="24" rx="0" ry="0" style="fill: rgb(0, 0, 0);"><g id="shape-2f2ed196-18b4-8087-8007-640901113153" style="display: none;"><g class="fills" id="fills-2f2ed196-18b4-8087-8007-640901113153"><rect width="24" height="24" x="0" transform="matrix(1.000000, 0.000000, 0.000000, 1.000000, 0.000000, 0.000000)" style="fill: none;" ry="0" fill="none" rx="0" y="0"/></g></g><g id="shape-2f2ed196-18b4-8087-8007-640901132522"><g class="fills" id="fills-2f2ed196-18b4-8087-8007-640901132522"><path d="M20.9853515625,12.486328125C20.7236328125,17.32421875,16.6806640625,21.0859375,11.8369140625,21C6.9931640625,20.912109375,3.0869140625,17.0078125,3,12.1640625C2.912109375,7.3203125,6.6748046875,3.275390625,11.51171875,3.013671875C11.9169921875,2.9921875,12.12890625,3.474609375,11.9140625,3.81640625C10.43359375,6.185546875,10.7841796875,9.263671875,12.759765625,11.240234375C14.7353515625,13.21484375,17.8125,13.56640625,20.181640625,12.0859375C20.5263671875,11.869140625,21.0068359375,12.080078125,20.9853515625,12.486328125" fill="none" stroke-linecap="round" stroke-linejoin="round" style="fill: none;"/></g><g fill="none" stroke-linecap="round" stroke-linejoin="round" id="strokes-b20d9b24-91c4-808e-8007-640c71d16d19-2f2ed196-18b4-8087-8007-640901132522" class="strokes"><g class="stroke-shape"><path d="M20.9853515625,12.486328125C20.7236328125,17.32421875,16.6806640625,21.0859375,11.8369140625,21C6.9931640625,20.912109375,3.0869140625,17.0078125,3,12.1640625C2.912109375,7.3203125,6.6748046875,3.275390625,11.51171875,3.013671875C11.9169921875,2.9921875,12.12890625,3.474609375,11.9140625,3.81640625C10.43359375,6.185546875,10.7841796875,9.263671875,12.759765625,11.240234375C14.7353515625,13.21484375,17.8125,13.56640625,20.181640625,12.0859375C20.5263671875,11.869140625,21.0068359375,12.080078125,20.9853515625,12.486328125" style="fill: none; stroke-width: 2; stroke: rgb(242, 251, 253); stroke-opacity: 1;"/></g></g></g></g></svg>