<svg width="16" xmlns="http://www.w3.org/2000/svg" height="16" id="screenshot-86860207-4532-8062-8007-71fa18f9bf43" viewBox="0 0 16 16" xmlns:xlink="http://www.w3.org/1999/xlink" fill="none" version="1.1"><g id="shape-86860207-4532-8062-8007-71fa18f9bf43" width="16" height="16" rx="0" ry="0" style="fill: rgb(0, 0, 0);"><g id="shape-86860207-4532-8062-8007-71fa1905c411" style="display: none;"><g class="fills" id="fills-86860207-4532-8062-8007-71fa1905c411"><rect width="16" height="16" x="0" transform="matrix(1.000000, 0.000000, 0.000000, 1.000000, 0.000000, 0.000000)" style="fill: rgb(3, 20, 22); fill-opacity: 1;" ry="0" fill="none" rx="0" y="0"/></g></g><g id="shape-86860207-4532-8062-8007-71fa19074f39"><g class="fills" id="fills-86860207-4532-8062-8007-71fa19074f39"><path d="M14.447265625,3.724609375L8.447265625,0.724609375C8.166015625,0.583984375,7.833984375,0.583984375,7.552734375,0.724609375L1.552734375,3.724609375C1.2138671875,3.892578125,1,4.240234375,1,4.6171875L1,11.3828125C1,11.759765625,1.2138671875,12.107421875,1.552734375,12.275390625L7.552734375,15.275390625C7.833984375,15.416015625,8.166015625,15.416015625,8.447265625,15.275390625L14.447265625,12.275390625C14.7861328125,12.107421875,15,11.759765625,15,11.3828125L15,4.6171875C15,4.240234375,14.7861328125,3.892578125,14.447265625,3.724609375M5.87109375,5.896484375L11.2138671875,3.224609375L13.3720703125,4.3046875L8,6.943359375ZM8,1.6171875L10.095703125,2.666015625L4.7431640625,5.34375L2.6279296875,4.3046875ZM2,5.109375L4.25,6.21484375L4.25,9C4.25,9.275390625,4.4736328125,9.5,4.75,9.5C5.0263671875,9.5,5.25,9.275390625,5.25,9L5.25,6.705078125L7.5,7.810546875L7.5,14.1328125L2,11.3828125ZM8.5,14.1328125L8.5,7.8125L14,5.109375L14,11.3828125Z" style="fill: rgb(3, 20, 22); fill-opacity: 1;"/></g></g></g></svg>