<svg width="16" xmlns="http://www.w3.org/2000/svg" height="16" id="screenshot-0073af8d-e24b-80ee-8007-481a0d56d6d5" viewBox="0 0 16 16" xmlns:xlink="http://www.w3.org/1999/xlink" fill="none" version="1.1"><g id="shape-0073af8d-e24b-80ee-8007-481a0d56d6d5" width="16" height="16" rx="0" ry="0" style="fill: rgb(0, 0, 0);"><g id="shape-0073af8d-e24b-80ee-8007-481a0d63190f" style="display: none;"><g class="fills" id="fills-0073af8d-e24b-80ee-8007-481a0d63190f"><rect width="16" height="16" x="0" transform="matrix(1.000000, 0.000000, 0.000000, 1.000000, 0.000000, 0.000000)" style="fill: none;" ry="0" fill="none" rx="0" y="0"/></g></g><g id="shape-0073af8d-e24b-80ee-8007-481a0d6434f4"><g class="fills" id="fills-0073af8d-e24b-80ee-8007-481a0d6434f4"><path d="M13.099609375,12C11.900390625,13.5,10.099609375,14.5,8,14.5C4.400390625,14.5,1.5,11.599609375,1.5,8C1.5,4.400390625,4.400390625,1.5,8,1.5C10.2001953125,1.5,12.099609375,2.599609375,13.2998046875,4.19921875M13.5,1L13.5,4C13.5,4.30078125,13.2998046875,4.5,13,4.5L10,4.5" fill="none" stroke-linecap="round" style="fill: none;"/></g><g fill="none" stroke-linecap="round" id="strokes-34e942e7-c58c-806d-8007-481b7c386ed5-0073af8d-e24b-80ee-8007-481a0d6434f4" class="strokes"><g class="stroke-shape"><path d="M13.099609375,12C11.900390625,13.5,10.099609375,14.5,8,14.5C4.400390625,14.5,1.5,11.599609375,1.5,8C1.5,4.400390625,4.400390625,1.5,8,1.5C10.2001953125,1.5,12.099609375,2.599609375,13.2998046875,4.19921875M13.5,1L13.5,4C13.5,4.30078125,13.2998046875,4.5,13,4.5L10,4.5" style="fill: none; stroke-width: 2; stroke: rgb(3, 20, 22); stroke-opacity: 1;"/></g></g></g></g></svg>