<svg width="49" xmlns="http://www.w3.org/2000/svg" height="33.32" id="screenshot-e6a5cbfe-d166-8060-8007-263c9d473b71" viewBox="0 0 49 33.32" xmlns:xlink="http://www.w3.org/1999/xlink" fill="none" version="1.1"><g id="shape-e6a5cbfe-d166-8060-8007-263c9d473b71" height="33.573" width="49.547" xml:space="preserve" rx="0" ry="0" style="fill: rgb(0, 0, 0);"><g id="shape-e6a5cbfe-d166-8060-8007-263c9d4e11c9" style="display: none;"><g class="fills" id="fills-e6a5cbfe-d166-8060-8007-263c9d4e11c9"><rect width="49" height="33.31999999999971" x="0" transform="matrix(1.000000, 0.000000, 0.000000, 1.000000, 0.000000, 0.000000)" style="fill: none;" ry="0" fill="none" rx="0" y="0"/></g><g fill="none" id="strokes-0a77bb13-136d-8074-8007-8ee0f946746d-e6a5cbfe-d166-8060-8007-263c9d4e11c9" class="strokes"><g class="inner-stroke-shape" transform="matrix(1.000000, 0.000000, 0.000000, 1.000000, 0.000000, 0.000000)"><defs><clipPath id="inner-stroke-render-2-e6a5cbfe-d166-8060-8007-263c9d4e11c9-0"><use href="#stroke-shape-render-2-e6a5cbfe-d166-8060-8007-263c9d4e11c9-0"/></clipPath><rect rx="0" ry="0" x="0" y="0" width="49" height="33.31999999999971" id="stroke-shape-render-2-e6a5cbfe-d166-8060-8007-263c9d4e11c9-0" style="fill: none; stroke-width: 0.2; stroke: rgb(242, 251, 253); stroke-opacity: 1;"/></defs><use href="#stroke-shape-render-2-e6a5cbfe-d166-8060-8007-263c9d4e11c9-0" clip-path="url('#inner-stroke-render-2-e6a5cbfe-d166-8060-8007-263c9d4e11c9-0')"/></g></g></g><g id="shape-e6a5cbfe-d166-8060-8007-263c9d4e8f86"><defs style="fill: rgb(0, 0, 0);"/></g><g id="shape-e6a5cbfe-d166-8060-8007-263c9d4eeec0" clip-path="url(#render-4-a)" rx="0" ry="0" style="fill: rgb(0, 0, 0);"><defs><clipPath id="render-4-a" clipPathUnits="userSpaceOnUse" class="svg-def" transform="matrix(0.131861, 0.000000, 0.000000, -0.132329, 0.000000, 33.320330)"><path d="m 0,1.79688 h 370 v 250 H 0 Z"/></clipPath></defs><g id="shape-e6a5cbfe-d166-8060-8007-263c9d508f89"><g class="fills" id="fills-e6a5cbfe-d166-8060-8007-263c9d508f89"><path d="M48.7705078125,9.728515625C48.7705078125,14.95703125,37.912109375,19.193359375,24.517578125,19.193359375C11.1220703125,19.193359375,0.263671875,14.95703125,0.263671875,9.728515625L0.263671875,23.591796875C0.263671875,28.818359375,11.1220703125,33.05859375,24.517578125,33.05859375C37.912109375,33.05859375,48.7705078125,28.818359375,48.7705078125,23.591796875L48.7705078125,9.728515625" style="fill-rule: nonzero; stroke: none; fill: rgb(78, 118, 228); fill-opacity: 1;"/></g><g id="strokes-0a77bb13-136d-8074-8007-8ee0f9485685-e6a5cbfe-d166-8060-8007-263c9d508f89" class="strokes" style="fill-rule: nonzero; stroke: none;"><g class="inner-stroke-shape"><defs><clipPath id="inner-stroke-render-5-e6a5cbfe-d166-8060-8007-263c9d508f89-0"><use href="#stroke-shape-render-5-e6a5cbfe-d166-8060-8007-263c9d508f89-0"/></clipPath><path d="M48.7705078125,9.728515625C48.7705078125,14.95703125,37.912109375,19.193359375,24.517578125,19.193359375C11.1220703125,19.193359375,0.263671875,14.95703125,0.263671875,9.728515625L0.263671875,23.591796875C0.263671875,28.818359375,11.1220703125,33.05859375,24.517578125,33.05859375C37.912109375,33.05859375,48.7705078125,28.818359375,48.7705078125,23.591796875L48.7705078125,9.728515625" id="stroke-shape-render-5-e6a5cbfe-d166-8060-8007-263c9d508f89-0" style="fill: none; stroke-width: 0.2; stroke: rgb(242, 251, 253); stroke-opacity: 1;"/></defs><use href="#stroke-shape-render-5-e6a5cbfe-d166-8060-8007-263c9d508f89-0" clip-path="url('#inner-stroke-render-5-e6a5cbfe-d166-8060-8007-263c9d508f89-0')"/></g></g></g><g id="shape-e6a5cbfe-d166-8060-8007-263c9d5108c0"><g class="fills" id="fills-e6a5cbfe-d166-8060-8007-263c9d5108c0"><path d="M48.7705078125,9.728515625C48.7705078125,14.95703125,37.912109375,19.193359375,24.517578125,19.193359375C11.1220703125,19.193359375,0.263671875,14.95703125,0.263671875,9.728515625L0.263671875,23.591796875C0.263671875,28.818359375,11.1220703125,33.05859375,24.517578125,33.05859375C37.912109375,33.05859375,48.7705078125,28.818359375,48.7705078125,23.591796875Z" style="fill: none; stroke-linecap: butt; stroke-linejoin: miter; stroke-miterlimit: 4; stroke-dasharray: none;"/></g><g id="strokes-0a77bb13-136d-8074-8007-8ee0f948d082-e6a5cbfe-d166-8060-8007-263c9d5108c0" class="strokes" style="fill: none; stroke-linecap: butt; stroke-linejoin: miter; stroke-miterlimit: 4; stroke-dasharray: none;"><g class="inner-stroke-shape"><defs><clipPath id="inner-stroke-render-6-e6a5cbfe-d166-8060-8007-263c9d5108c0-0"><use href="#stroke-shape-render-6-e6a5cbfe-d166-8060-8007-263c9d5108c0-0"/></clipPath><path d="M48.7705078125,9.728515625C48.7705078125,14.95703125,37.912109375,19.193359375,24.517578125,19.193359375C11.1220703125,19.193359375,0.263671875,14.95703125,0.263671875,9.728515625L0.263671875,23.591796875C0.263671875,28.818359375,11.1220703125,33.05859375,24.517578125,33.05859375C37.912109375,33.05859375,48.7705078125,28.818359375,48.7705078125,23.591796875Z" id="stroke-shape-render-6-e6a5cbfe-d166-8060-8007-263c9d5108c0-0" style="fill: none; stroke-width: 0.2; stroke: rgb(242, 251, 253); stroke-opacity: 1;"/></defs><use href="#stroke-shape-render-6-e6a5cbfe-d166-8060-8007-263c9d5108c0-0" clip-path="url('#inner-stroke-render-6-e6a5cbfe-d166-8060-8007-263c9d5108c0-0')"/></g></g></g><g id="shape-e6a5cbfe-d166-8060-8007-263c9d517863"><g class="fills" id="fills-e6a5cbfe-d166-8060-8007-263c9d517863"><path d="M24.517578125,19.193359375C37.912109375,19.193359375,48.7705078125,14.95703125,48.7705078125,9.728515625C48.7705078125,4.501953125,37.912109375,0.263671875,24.517578125,0.263671875C11.1220703125,0.263671875,0.263671875,4.501953125,0.263671875,9.728515625C0.263671875,14.95703125,11.1220703125,19.193359375,24.517578125,19.193359375" style="fill-rule: nonzero; stroke: none; fill: rgb(78, 118, 228); fill-opacity: 1;"/></g><g id="strokes-0a77bb13-136d-8074-8007-8ee0f9496aba-e6a5cbfe-d166-8060-8007-263c9d517863" class="strokes" style="fill-rule: nonzero; stroke: none;"><g class="inner-stroke-shape"><defs><clipPath id="inner-stroke-render-7-e6a5cbfe-d166-8060-8007-263c9d517863-0"><use href="#stroke-shape-render-7-e6a5cbfe-d166-8060-8007-263c9d517863-0"/></clipPath><path d="M24.517578125,19.193359375C37.912109375,19.193359375,48.7705078125,14.95703125,48.7705078125,9.728515625C48.7705078125,4.501953125,37.912109375,0.263671875,24.517578125,0.263671875C11.1220703125,0.263671875,0.263671875,4.501953125,0.263671875,9.728515625C0.263671875,14.95703125,11.1220703125,19.193359375,24.517578125,19.193359375" id="stroke-shape-render-7-e6a5cbfe-d166-8060-8007-263c9d517863-0" style="fill: none; stroke-width: 0.2; stroke: rgb(242, 251, 253); stroke-opacity: 1;"/></defs><use href="#stroke-shape-render-7-e6a5cbfe-d166-8060-8007-263c9d517863-0" clip-path="url('#inner-stroke-render-7-e6a5cbfe-d166-8060-8007-263c9d517863-0')"/></g></g></g><g id="shape-e6a5cbfe-d166-8060-8007-263c9d51f8e0"><g class="fills" id="fills-e6a5cbfe-d166-8060-8007-263c9d51f8e0"><path d="M24.517578125,19.193359375C37.912109375,19.193359375,48.7705078125,14.95703125,48.7705078125,9.728515625C48.7705078125,4.501953125,37.912109375,0.263671875,24.517578125,0.263671875C11.1220703125,0.263671875,0.263671875,4.501953125,0.263671875,9.728515625C0.263671875,14.95703125,11.1220703125,19.193359375,24.517578125,19.193359375Z" style="fill: none; stroke-linecap: butt; stroke-linejoin: miter; stroke-miterlimit: 4; stroke-dasharray: none;"/></g><g id="strokes-0a77bb13-136d-8074-8007-8ee0f949aeaf-e6a5cbfe-d166-8060-8007-263c9d51f8e0" class="strokes" style="fill: none; stroke-linecap: butt; stroke-linejoin: miter; stroke-miterlimit: 4; stroke-dasharray: none;"><g class="inner-stroke-shape"><defs><clipPath id="inner-stroke-render-8-e6a5cbfe-d166-8060-8007-263c9d51f8e0-0"><use href="#stroke-shape-render-8-e6a5cbfe-d166-8060-8007-263c9d51f8e0-0"/></clipPath><path d="M24.517578125,19.193359375C37.912109375,19.193359375,48.7705078125,14.95703125,48.7705078125,9.728515625C48.7705078125,4.501953125,37.912109375,0.263671875,24.517578125,0.263671875C11.1220703125,0.263671875,0.263671875,4.501953125,0.263671875,9.728515625C0.263671875,14.95703125,11.1220703125,19.193359375,24.517578125,19.193359375Z" id="stroke-shape-render-8-e6a5cbfe-d166-8060-8007-263c9d51f8e0-0" style="fill: none; stroke-width: 0.2; stroke: rgb(242, 251, 253); stroke-opacity: 1;"/></defs><use href="#stroke-shape-render-8-e6a5cbfe-d166-8060-8007-263c9d51f8e0-0" clip-path="url('#inner-stroke-render-8-e6a5cbfe-d166-8060-8007-263c9d51f8e0-0')"/></g></g></g><g id="shape-e6a5cbfe-d166-8060-8007-263c9d521a5c"><g class="fills" id="fills-e6a5cbfe-d166-8060-8007-263c9d521a5c"><path d="M18.978515625,6.029296875L20.9814453125,9.04296875L13.4091796875,10.798828125L15.0634765625,9.41796875L3.361328125,7.41015625L6.296875,5.201171875L17.5888671875,7.12109375L18.978515625,6.029296875" style="fill-rule: nonzero; stroke: none; fill: rgb(242, 251, 253); fill-opacity: 1;"/></g><g id="strokes-0a77bb13-136d-8074-8007-8ee0f94a2d5d-e6a5cbfe-d166-8060-8007-263c9d521a5c" class="strokes" style="fill-rule: nonzero; stroke: none;"><g class="inner-stroke-shape"><defs><clipPath id="inner-stroke-render-9-e6a5cbfe-d166-8060-8007-263c9d521a5c-0"><use href="#stroke-shape-render-9-e6a5cbfe-d166-8060-8007-263c9d521a5c-0"/></clipPath><path d="M18.978515625,6.029296875L20.9814453125,9.04296875L13.4091796875,10.798828125L15.0634765625,9.41796875L3.361328125,7.41015625L6.296875,5.201171875L17.5888671875,7.12109375L18.978515625,6.029296875" id="stroke-shape-render-9-e6a5cbfe-d166-8060-8007-263c9d521a5c-0" style="fill: none; stroke-width: 0.2; stroke: rgb(242, 251, 253); stroke-opacity: 1;"/></defs><use href="#stroke-shape-render-9-e6a5cbfe-d166-8060-8007-263c9d521a5c-0" clip-path="url('#inner-stroke-render-9-e6a5cbfe-d166-8060-8007-263c9d521a5c-0')"/></g></g></g><g id="shape-e6a5cbfe-d166-8060-8007-263c9d52a671"><g class="fills" id="fills-e6a5cbfe-d166-8060-8007-263c9d52a671"><path d="M29.6337890625,13.33984375L28.2666015625,10.23046875L35.0966796875,8.859375L33.912109375,9.923828125L45.294921875,11.876953125L42.564453125,14.068359375L31.2490234375,11.935546875L29.6337890625,13.33984375" style="fill-rule: nonzero; stroke: none; fill: rgb(242, 251, 253); fill-opacity: 1;"/></g><g id="strokes-0a77bb13-136d-8074-8007-8ee0f94a9de7-e6a5cbfe-d166-8060-8007-263c9d52a671" class="strokes" style="fill-rule: nonzero; stroke: none;"><g class="inner-stroke-shape"><defs><clipPath id="inner-stroke-render-10-e6a5cbfe-d166-8060-8007-263c9d52a671-0"><use href="#stroke-shape-render-10-e6a5cbfe-d166-8060-8007-263c9d52a671-0"/></clipPath><path d="M29.6337890625,13.33984375L28.2666015625,10.23046875L35.0966796875,8.859375L33.912109375,9.923828125L45.294921875,11.876953125L42.564453125,14.068359375L31.2490234375,11.935546875L29.6337890625,13.33984375" id="stroke-shape-render-10-e6a5cbfe-d166-8060-8007-263c9d52a671-0" style="fill: none; stroke-width: 0.2; stroke: rgb(242, 251, 253); stroke-opacity: 1;"/></defs><use href="#stroke-shape-render-10-e6a5cbfe-d166-8060-8007-263c9d52a671-0" clip-path="url('#inner-stroke-render-10-e6a5cbfe-d166-8060-8007-263c9d52a671-0')"/></g></g></g><g id="shape-e6a5cbfe-d166-8060-8007-263c9d52d01e"><g class="fills" id="fills-e6a5cbfe-d166-8060-8007-263c9d52d01e"><path d="M25.8984375,4.380859375L33.5498046875,2.279296875L33.6376953125,5.572265625L31.7265625,5.205078125L27.994140625,8.3125L24.4296875,7.791015625L28.28515625,4.75L25.8984375,4.380859375" style="fill-rule: nonzero; stroke: none; fill: rgb(242, 251, 253); fill-opacity: 1;"/></g><g id="strokes-0a77bb13-136d-8074-8007-8ee0f94b2a2b-e6a5cbfe-d166-8060-8007-263c9d52d01e" class="strokes" style="fill-rule: nonzero; stroke: none;"><g class="inner-stroke-shape"><defs><clipPath id="inner-stroke-render-11-e6a5cbfe-d166-8060-8007-263c9d52d01e-0"><use href="#stroke-shape-render-11-e6a5cbfe-d166-8060-8007-263c9d52d01e-0"/></clipPath><path d="M25.8984375,4.380859375L33.5498046875,2.279296875L33.6376953125,5.572265625L31.7265625,5.205078125L27.994140625,8.3125L24.4296875,7.791015625L28.28515625,4.75L25.8984375,4.380859375" id="stroke-shape-render-11-e6a5cbfe-d166-8060-8007-263c9d52d01e-0" style="fill: none; stroke-width: 0.2; stroke: rgb(242, 251, 253); stroke-opacity: 1;"/></defs><use href="#stroke-shape-render-11-e6a5cbfe-d166-8060-8007-263c9d52d01e-0" clip-path="url('#inner-stroke-render-11-e6a5cbfe-d166-8060-8007-263c9d52d01e-0')"/></g></g></g><g id="shape-e6a5cbfe-d166-8060-8007-263c9d5325a5"><g class="fills" id="fills-e6a5cbfe-d166-8060-8007-263c9d5325a5"><path d="M22.619140625,16.171875L15.3359375,17.54296875L15.0625,14.162109375L17.1552734375,14.6171875L21.166015625,11.1796875L24.71484375,11.783203125L20.4345703125,15.53125L22.619140625,16.171875" style="fill-rule: nonzero; stroke: none; fill: rgb(242, 251, 253); fill-opacity: 1;"/></g><g id="strokes-0a77bb13-136d-8074-8007-8ee0f94bbc2b-e6a5cbfe-d166-8060-8007-263c9d5325a5" class="strokes" style="fill-rule: nonzero; stroke: none;"><g class="inner-stroke-shape"><defs><clipPath id="inner-stroke-render-12-e6a5cbfe-d166-8060-8007-263c9d5325a5-0"><use href="#stroke-shape-render-12-e6a5cbfe-d166-8060-8007-263c9d5325a5-0"/></clipPath><path d="M22.619140625,16.171875L15.3359375,17.54296875L15.0625,14.162109375L17.1552734375,14.6171875L21.166015625,11.1796875L24.71484375,11.783203125L20.4345703125,15.53125L22.619140625,16.171875" id="stroke-shape-render-12-e6a5cbfe-d166-8060-8007-263c9d5325a5-0" style="fill: none; stroke-width: 0.2; stroke: rgb(242, 251, 253); stroke-opacity: 1;"/></defs><use href="#stroke-shape-render-12-e6a5cbfe-d166-8060-8007-263c9d5325a5-0" clip-path="url('#inner-stroke-render-12-e6a5cbfe-d166-8060-8007-263c9d5325a5-0')"/></g></g></g></g></g></svg>