<svg width="24" xmlns="http://www.w3.org/2000/svg" height="24" id="screenshot-86860207-4532-8062-8007-71f33c48f482" viewBox="0 0 24 24" xmlns:xlink="http://www.w3.org/1999/xlink" fill="none" version="1.1"><g id="shape-86860207-4532-8062-8007-71f33c48f482" width="24" height="24" rx="0" ry="0" style="fill: rgb(0, 0, 0);"><g id="shape-86860207-4532-8062-8007-71f33c4f7097"><g class="fills" id="fills-86860207-4532-8062-8007-71f33c4f7097"><path d="M12,2C6.5,2,2,6.5,2,12C2,17.5,6.5,22,12,22C17.5,22,22,17.5,22,12C22,6.5,17.5,2,12,2M12,20C7.580078125,20,4,16.419921875,4,12C4,7.580078125,7.580078125,4,12,4C16.419921875,4,20,7.580078125,20,12C20,16.419921875,16.419921875,20,12,20M13,13L13,16L15,16L12,19L9,16L11,16L11,13M5,13L8,13L8,15L11,12L8,9L8,11L5,11M11,11L11,8L9,8L12,5L15,8L13,8L13,11M19,11L16,11L16,9L13,12L16,15L16,13L19,13" style="fill: rgb(3, 20, 22); fill-opacity: 1;"/></g></g><g id="shape-86860207-4532-8062-8007-71f33c4e7c25" style="display: none;"><g class="fills" id="fills-86860207-4532-8062-8007-71f33c4e7c25"><rect width="24" height="24" x="0" transform="matrix(1.000000, 0.000000, 0.000000, 1.000000, 0.000000, 0.000000)" style="fill: rgb(3, 20, 22); fill-opacity: 1;" ry="0" fill="none" rx="0" y="0"/></g></g></g></svg>