<svg width="19.805" xmlns="http://www.w3.org/2000/svg" height="20.3" id="screenshot-ea2646e4-fb6c-807f-8007-195a9c166830" viewBox="0 0 19.805 20.3" xmlns:xlink="http://www.w3.org/1999/xlink" fill="none" version="1.1"><g id="shape-ea2646e4-fb6c-807f-8007-195a9c166830" width="24" height="24" rx="0" ry="0" style="fill: rgb(0, 0, 0);"><g id="shape-ea2646e4-fb6c-807f-8007-195a9c166831" style="display: none;"><g class="fills" id="fills-ea2646e4-fb6c-807f-8007-195a9c166831"><rect width="19.804878048780665" height="20.30000000000291" x="0" transform="matrix(1.000000, 0.000000, 0.000000, 1.000000, 0.000000, 0.000000)" style="fill: rgb(3, 20, 22); fill-opacity: 1;" ry="0" fill="none" rx="0" y="0"/></g></g><g id="shape-ea2646e4-fb6c-807f-8007-195a9c166832"><g class="fills" id="fills-ea2646e4-fb6c-807f-8007-195a9c166832"><path d="M7.013571739196777,3.1714844703674316L7.013571739196777,4.775000095367432C7.013571739196777,5.165625095367432,7.323142051696777,5.485937595367432,7.709860801696777,5.485937595367432L12.094626426696777,5.485937595367432C12.278220176696777,5.485937595367432,12.454977989196777,5.411718845367432,12.585837364196777,5.278906345367432C12.716696739196777,5.146093845367432,12.789938926696777,4.966406345367432,12.790915489196777,4.775000095367432L12.790915489196777,3.2261719703674316C12.636618614196777,3.1910157203674316,12.478415489196777,3.1714844703674316,12.320212364196777,3.1714844703674316ZM14.287009239196777,18.396093368530273L5.519431114196777,18.396093368530273C4.658102989196777,18.398046493530273,3.8319311141967773,18.050390243530273,3.2225561141967773,17.427343368530273C2.6131811141967773,16.804296493530273,2.2704076766967773,15.956640243530273,2.2694311141967773,15.073827743530273L2.2694311141967773,5.224218845367432C2.2704076766967773,4.341406345367432,2.6131811141967773,3.4937500953674316,3.2225561141967773,2.8726563453674316C3.8319311141967773,2.2496094703674316,4.658102989196777,1.901953101158142,5.519431114196777,1.901953101158142L12.320212364196777,1.901953101158142C13.180563926696777,1.901953101158142,14.006735801696777,2.2535157203674316,14.617087364196777,2.8746094703674316L16.582908630371094,4.882421970367432C17.191307067871094,5.505468845367432,17.535057067871094,6.349218845367432,17.535057067871094,7.232031345367432L17.535057067871094,15.073827743530273C17.535057067871094,15.956640243530273,17.191307067871094,16.802343368530273,16.582908630371094,17.425390243530273C15.973532676696777,18.048437118530273,15.147360801696777,18.396093368530273,14.287009239196777,18.394140243530273M12.790915489196777,17.126562118530273L12.790915489196777,13.732030868530273C12.789938926696777,13.544530868530273,12.716696739196777,13.360937118530273,12.585837364196777,13.228124618530273C12.454977989196777,13.095312118530273,12.278220176696777,13.019140243530273,12.094626426696777,13.023046493530273L7.709860801696777,13.023046493530273C7.526267051696777,13.019140243530273,7.349509239196777,13.095312118530273,7.218649864196777,13.228124618530273C7.087790489196777,13.360937118530273,7.015524864196777,13.544530868530273,7.013571739196777,13.732030868530273L7.013571739196777,17.126562118530273Z" style="fill: rgb(3, 20, 22); fill-opacity: 1;"/></g></g></g></svg>