<svg width="14" xmlns="http://www.w3.org/2000/svg" height="14" id="screenshot-ea2646e4-fb6c-807f-8007-195a9c166841" viewBox="0 0 14 14" xmlns:xlink="http://www.w3.org/1999/xlink" fill="none" version="1.1"><g id="shape-ea2646e4-fb6c-807f-8007-195a9c166841" width="24" height="24" rx="0" ry="0" style="fill: rgb(0, 0, 0);"><g id="shape-ea2646e4-fb6c-807f-8007-195a9c166847"><g class="fills" id="fills-ea2646e4-fb6c-807f-8007-195a9c166847"><path d="M1.1046332120895386,0.5846946239471436C1.1046332120895386,0.26047584414482117,0.8585394024848938,0.0007102272938936949,0.5528753399848938,0.0007102272938936949C0.248187854886055,0.0007102272938936949,0.0001409738906659186,0.26047584414482117,0.0001409738906659186,0.5846946239471436L0.0001409738906659186,13.414772987365723C0.0001409738906659186,13.740944862365723,0.248187854886055,14.000710487365723,0.5528753399848938,14.000710487365723C0.8585394024848938,14.000710487365723,1.1046332120895386,13.740944862365723,1.1046332120895386,13.414772987365723L1.1046332120895386,0.5846946239471436M5.704242706298828,0.24094460904598236C4.846820831298828,-0.37624290585517883,3.684711217880249,0.26633521914482117,3.684711217880249,1.3620383739471436L3.684711217880249,12.637429237365723C3.684711217880249,13.737038612365723,4.855609893798828,14.381569862365723,5.711078643798828,13.754616737365723L13.446430206298828,8.076882362365723C13.794086456298828,7.8190693855285645,14.002094268798828,7.3991475105285645,14.000141143798828,6.9538350105285645C13.998188018798828,6.5065693855285645,13.788227081298828,6.0866475105285645,13.439594268798828,5.8366475105285645L5.704242706298828,0.24094460904598236" style="fill: rgb(3, 20, 22); fill-opacity: 1;"/></g></g></g></svg>