<svg width="14" xmlns="http://www.w3.org/2000/svg" height="14" id="screenshot-ea2646e4-fb6c-807f-8007-195a9c16683f" viewBox="0 0 14 14" xmlns:xlink="http://www.w3.org/1999/xlink" fill="none" version="1.1"><g id="shape-ea2646e4-fb6c-807f-8007-195a9c16683f" width="24" height="24" rx="0" ry="0" style="fill: rgb(0, 0, 0);"><g id="shape-ea2646e4-fb6c-807f-8007-195a9c166845"><g class="fills" id="fills-ea2646e4-fb6c-807f-8007-195a9c166845"><path d="M12.895812034606934,13.416726112365723C12.895812034606934,13.740944862365723,13.141905784606934,14.000710487365723,13.447569847106934,14.000710487365723C13.752257347106934,14.000710487365723,14.000304222106934,13.740944862365723,14.000304222106934,13.416726112365723L14.000304222106934,0.5866477489471436C14.000304222106934,0.26047584414482117,13.752257347106934,0.0007102272938936949,13.447569847106934,0.0007102272938936949C13.141905784606934,0.0007102272938936949,12.895812034606934,0.26047584414482117,12.895812034606934,0.5866477489471436ZM8.296202659606934,13.760476112365723C9.153624534606934,14.377663612365723,10.315733909606934,13.735085487365723,10.315733909606934,12.639382362365723L10.315733909606934,1.3639914989471436C10.315733909606934,0.26438209414482117,9.144835472106934,-0.38014915585517883,8.289366722106934,0.24680398404598236L0.5540152192115784,5.9245381355285645C0.20635896921157837,6.1823506355285645,-0.001648848643526435,6.6022725105285645,0.00030427632736973464,7.0475850105285645C0.002257401356473565,7.4948506355285645,0.21221834421157837,7.9147725105285645,0.5608511567115784,8.164772987365723Z" style="fill: rgb(3, 20, 22); fill-opacity: 1;"/></g></g></g></svg>