<svg width="24" xmlns="http://www.w3.org/2000/svg" height="24" id="screenshot-2f2ed196-18b4-8087-8007-6408a428dfef" viewBox="0 0 24 24" xmlns:xlink="http://www.w3.org/1999/xlink" fill="none" version="1.1"><g id="shape-2f2ed196-18b4-8087-8007-6408a428dfef" width="24" height="24" rx="0" ry="0" style="fill: rgb(0, 0, 0);"><g id="shape-2f2ed196-18b4-8087-8007-6408a436f738" style="display: none;"><g class="fills" id="fills-2f2ed196-18b4-8087-8007-6408a436f738"><rect width="24" height="24" x="0" transform="matrix(1.000000, 0.000000, 0.000000, 1.000000, 0.000000, 0.000000)" style="fill: none;" ry="0" fill="none" rx="0" y="0"/></g></g><g id="shape-2f2ed196-18b4-8087-8007-6408a4379ecf" rx="0" ry="0" style="fill: rgb(0, 0, 0);"><g id="shape-2f2ed196-18b4-8087-8007-6408a438164f"><g class="fills" id="fills-2f2ed196-18b4-8087-8007-6408a438164f"><ellipse cy="12" stroke-linejoin="round" transform="matrix(1.000000, 0.000000, 0.000000, 1.000000, 0.000000, 0.000000)" style="fill: none;" ry="5" fill="none" stroke-linecap="round" rx="5" cx="12"/></g><g fill="none" stroke-linejoin="round" stroke-linecap="round" id="strokes-347c0f19-0b19-80a8-8007-640a7e6c8551-2f2ed196-18b4-8087-8007-6408a438164f" class="strokes"><g class="stroke-shape"><ellipse cx="12" cy="12" rx="5" ry="5" transform="matrix(1.000000, 0.000000, 0.000000, 1.000000, 0.000000, 0.000000)" style="fill: none; stroke-width: 2; stroke: rgb(3, 20, 22); stroke-opacity: 1;"/></g></g></g><g id="shape-2f2ed196-18b4-8087-8007-6408a439d66d"><g class="fills" id="fills-2f2ed196-18b4-8087-8007-6408a439d66d"><path d="M12,1L12,3M12,21L12,23M4.2001953125,4.19921875L5.599609375,5.599609375M18.400390625,18.400390625L19.7998046875,19.80078125M1,12L3,12M21,12L23,12M4.2001953125,19.80078125L5.599609375,18.400390625M18.400390625,5.599609375L19.7998046875,4.19921875" fill="none" stroke-linejoin="round" stroke-linecap="round" style="fill: none;"/></g><g fill="none" stroke-linejoin="round" stroke-linecap="round" id="strokes-347c0f19-0b19-80a8-8007-640a7e6da056-2f2ed196-18b4-8087-8007-6408a439d66d" class="strokes"><g class="stroke-shape"><path d="M12,1L12,3M12,21L12,23M4.2001953125,4.19921875L5.599609375,5.599609375M18.400390625,18.400390625L19.7998046875,19.80078125M1,12L3,12M21,12L23,12M4.2001953125,19.80078125L5.599609375,18.400390625M18.400390625,5.599609375L19.7998046875,4.19921875" style="fill: none; stroke-width: 2; stroke: rgb(3, 20, 22); stroke-opacity: 1;"/></g></g></g></g></g></svg>