<svg width="24" xmlns="http://www.w3.org/2000/svg" height="24" id="screenshot-86860207-4532-8062-8007-71f2dd3ee066" viewBox="0 0 24 24" xmlns:xlink="http://www.w3.org/1999/xlink" fill="none" version="1.1"><g id="shape-86860207-4532-8062-8007-71f2dd3ee066" width="24" height="24" rx="0" ry="0" style="fill: rgb(0, 0, 0);"><g id="shape-86860207-4532-8062-8007-71f2dd45897c" style="display: none;"><g class="fills" id="fills-86860207-4532-8062-8007-71f2dd45897c"><rect width="24" height="24" x="0" transform="matrix(1.000000, 0.000000, 0.000000, 1.000000, 0.000000, 0.000000)" style="fill: none;" ry="0" fill="none" rx="0" y="0"/></g></g><g id="shape-86860207-4532-8062-8007-71f2dd461d4f" rx="0" ry="0" style="fill: rgb(0, 0, 0);"><g id="shape-86860207-4532-8062-8007-71f2dd46987a"><g class="fills" id="fills-86860207-4532-8062-8007-71f2dd46987a"><path d="M5.4697265625,6.015625L5.4697265625,18.529296875C5.4697265625,19.25,5.755859375,19.943359375,6.2666015625,20.453125C6.77734375,20.962890625,7.4697265625,21.25,8.19140625,21.25L15.80859375,21.25C17.3115234375,21.25,18.529296875,20.03125,18.529296875,18.529296875L18.529296875,6.013671875M3.2939453125,6.015625L20.7060546875,6.015625" fill="none" stroke-linejoin="round" stroke-linecap="round" style="fill: none;"/></g><g fill="none" stroke-linejoin="round" stroke-linecap="round" id="strokes-44a0167f-6aaf-8010-8007-71f3d309ca2d-86860207-4532-8062-8007-71f2dd46987a" class="strokes"><g class="stroke-shape"><path d="M5.4697265625,6.015625L5.4697265625,18.529296875C5.4697265625,19.25,5.755859375,19.943359375,6.2666015625,20.453125C6.77734375,20.962890625,7.4697265625,21.25,8.19140625,21.25L15.80859375,21.25C17.3115234375,21.25,18.529296875,20.03125,18.529296875,18.529296875L18.529296875,6.013671875M3.2939453125,6.015625L20.7060546875,6.015625" style="fill: none; stroke-width: 1.5; stroke: rgb(3, 20, 22); stroke-opacity: 1;"/></g></g></g><g id="shape-86860207-4532-8062-8007-71f2dd47afc1"><g class="fills" id="fills-86860207-4532-8062-8007-71f2dd47afc1"><path d="M8.7353515625,6.015625L8.7353515625,4.3828125C8.734375,3.94921875,8.90625,3.533203125,9.212890625,3.2265625C9.51953125,2.919921875,9.9345703125,2.75,10.3681640625,2.75L13.6318359375,2.75C14.0654296875,2.75,14.48046875,2.919921875,14.787109375,3.2265625C15.09375,3.533203125,15.265625,3.94921875,15.2646484375,4.3828125L15.2646484375,6.015625M9.82421875,16.9921875L9.82421875,11.552734375M14.1767578125,16.9921875L14.1767578125,11.552734375" fill="none" stroke-linejoin="round" stroke-linecap="round" style="fill: none;"/></g><g fill="none" stroke-linejoin="round" stroke-linecap="round" id="strokes-44a0167f-6aaf-8010-8007-71f3d30aa8c0-86860207-4532-8062-8007-71f2dd47afc1" class="strokes"><g class="stroke-shape"><path d="M8.7353515625,6.015625L8.7353515625,4.3828125C8.734375,3.94921875,8.90625,3.533203125,9.212890625,3.2265625C9.51953125,2.919921875,9.9345703125,2.75,10.3681640625,2.75L13.6318359375,2.75C14.0654296875,2.75,14.48046875,2.919921875,14.787109375,3.2265625C15.09375,3.533203125,15.265625,3.94921875,15.2646484375,4.3828125L15.2646484375,6.015625M9.82421875,16.9921875L9.82421875,11.552734375M14.1767578125,16.9921875L14.1767578125,11.552734375" style="fill: none; stroke-width: 1.5; stroke: rgb(3, 20, 22); stroke-opacity: 1;"/></g></g></g></g></g></svg>