<svg width="17.683" xmlns="http://www.w3.org/2000/svg" height="18.125" id="screenshot-ea2646e4-fb6c-807f-8007-195a9c166829" viewBox="0 0 17.683 18.125" xmlns:xlink="http://www.w3.org/1999/xlink" fill="none" version="1.1"><g id="shape-ea2646e4-fb6c-807f-8007-195a9c166829" width="24" height="24" rx="0" ry="0" style="fill: rgb(0, 0, 0);"><g id="shape-ea2646e4-fb6c-807f-8007-195a9c16682a" style="display: none;"><g class="fills" id="fills-ea2646e4-fb6c-807f-8007-195a9c16682a"><rect width="17.68292682927131" height="18.125" x="0" transform="matrix(1.000000, 0.000000, 0.000000, 1.000000, 0.000000, 0.000000)" style="fill: none;" ry="0" fill="none" rx="0" y="0"/></g></g><g id="shape-ea2646e4-fb6c-807f-8007-195a9c16682b" class="upload-outline" rx="0" ry="0" style="fill: rgb(0, 0, 0);"><g id="shape-ea2646e4-fb6c-807f-8007-195a9c16682c" class="Vector" rx="0" ry="0" style="fill: rgb(0, 0, 0);"><g id="shape-ea2646e4-fb6c-807f-8007-195a9c16682d"><g class="fills" id="fills-ea2646e4-fb6c-807f-8007-195a9c16682d"><path d="M5.1574788093566895,16.615234375C3.1223227977752686,16.615234375,1.4729087352752686,14.92578125,1.4729087352752686,12.83984375L1.4729087352752686,10.57421875C1.4729087352752686,10.15625,1.8020102977752686,9.818359375,2.2102134227752686,9.818359375C2.6174399852752686,9.818359375,2.9465415477752686,10.15625,2.9465415477752686,10.57421875L2.9465415477752686,12.83984375C2.9465415477752686,14.08984375,3.9357993602752686,15.10546875,5.1574788093566895,15.10546875L12.524666786193848,15.10546875C13.746346473693848,15.10546875,14.735604286193848,14.08984375,14.735604286193848,12.83984375L14.735604286193848,10.57421875C14.735604286193848,10.15625,15.064705848693848,9.818359375,15.471932411193848,9.818359375C15.880135536193848,9.818359375,16.20923614501953,10.15625,16.20923614501953,10.57421875L16.20923614501953,12.83984375C16.20923614501953,14.92578125,14.559823036193848,16.615234375,12.524666786193848,16.615234375Z" fill-rule="evenodd" clip-rule="evenodd"/></g></g><g id="shape-ea2646e4-fb6c-807f-8007-195a9c16682e"><g class="fills" id="fills-ea2646e4-fb6c-807f-8007-195a9c16682e"><path d="M5.3674397468566895,7.626953125C5.2307209968566895,7.484375,5.1555256843566895,7.291015625,5.1574788093566895,7.08984375C5.1594319343566895,6.890625,5.2385334968566895,6.69921875,5.3791584968566895,6.560546875L8.694588661193848,3.236328125C8.980721473693848,2.94921875,9.438729286193848,2.94921875,9.724862098693848,3.236328125L13.040291786193848,6.560546875C13.231698036193848,6.748046875,13.311776161193848,7.025390625,13.246346473693848,7.291015625C13.181893348693848,7.5546875,12.983651161193848,7.76171875,12.727791786193848,7.833984375C12.471932411193848,7.90625,12.197518348693848,7.83203125,12.010018348693848,7.640625L9.946541786193848,5.572265625L9.946541786193848,12.083984375C9.946541786193848,12.501953125,9.616463661193848,12.83984375,9.209237098693848,12.83984375C8.802010536193848,12.83984375,8.472908973693848,12.501953125,8.472908973693848,12.083984375L8.472908973693848,5.572265625L6.4094319343566895,7.640625C6.2697834968566895,7.78125,6.0813069343566895,7.857421875,5.8859944343566895,7.85546875C5.6906819343566895,7.853515625,5.5041584968566895,7.771484375,5.3674397468566895,7.626953125Z" fill-rule="evenodd" clip-rule="evenodd"/></g></g></g></g></g></svg>