<svg width="24" xmlns="http://www.w3.org/2000/svg" height="24" id="screenshot-cb1e613d-77f6-8054-8007-1ea96de0bb4a" viewBox="0 0 24 24" xmlns:xlink="http://www.w3.org/1999/xlink" fill="none" version="1.1"><g id="shape-cb1e613d-77f6-8054-8007-1ea96de0bb4a" width="24" height="24" rx="0" ry="0" style="fill: rgb(0, 0, 0);"><g id="shape-cb1e613d-77f6-8054-8007-1ea96deaecb8" style="display: none;"><g class="fills" id="fills-cb1e613d-77f6-8054-8007-1ea96deaecb8"><rect width="24" height="24" x="0" transform="matrix(1.000000, 0.000000, 0.000000, 1.000000, 0.000000, 0.000000)" style="fill: none;" ry="0" fill="none" rx="0" y="0"/></g></g><g id="shape-cb1e613d-77f6-8054-8007-1ea96deb2dd9" rx="0" ry="0" style="fill: rgb(0, 0, 0);"><g id="shape-cb1e613d-77f6-8054-8007-1ea96deb8bbb"><g class="fills" id="fills-cb1e613d-77f6-8054-8007-1ea96deb8bbb"><path d="M12.5927734375,23.2578125L12.58203125,23.259765625L12.51171875,23.294921875L12.4912109375,23.298828125L12.4765625,23.294921875L12.40625,23.259765625C12.3955078125,23.255859375,12.38671875,23.2578125,12.3818359375,23.265625L12.3779296875,23.275390625L12.361328125,23.703125L12.3662109375,23.72265625L12.3759765625,23.736328125L12.48046875,23.810546875L12.4951171875,23.814453125L12.5068359375,23.810546875L12.611328125,23.736328125L12.623046875,23.720703125L12.626953125,23.703125L12.609375,23.275390625C12.607421875,23.265625,12.6015625,23.259765625,12.5927734375,23.2578125M12.857421875,23.14453125L12.845703125,23.146484375L12.66015625,23.240234375L12.650390625,23.25L12.646484375,23.26171875L12.6650390625,23.69140625L12.669921875,23.703125L12.677734375,23.7109375L12.87890625,23.802734375C12.8916015625,23.806640625,12.9013671875,23.802734375,12.908203125,23.794921875L12.912109375,23.78125L12.8779296875,23.16796875C12.875,23.154296875,12.8681640625,23.1484375,12.857421875,23.14453125M12.142578125,23.146484375C12.1337890625,23.140625,12.1220703125,23.14453125,12.1162109375,23.15234375L12.109375,23.16796875L12.076171875,23.78125C12.076171875,23.79296875,12.08203125,23.80078125,12.0927734375,23.8046875L12.107421875,23.802734375L12.30859375,23.7109375L12.318359375,23.701171875L12.3232421875,23.69140625L12.33984375,23.26171875L12.3369140625,23.248046875L12.3271484375,23.23828125Z" fill="none" style="fill: none;"/></g></g><g id="shape-cb1e613d-77f6-8054-8007-1ea96dec1b1d"><g class="fills" id="fills-cb1e613d-77f6-8054-8007-1ea96dec1b1d"><path d="M10.5,2C13.697265625,2,16.625,3.794921875,18.076171875,6.64453125C19.5263671875,9.494140625,19.2548828125,12.916015625,17.373046875,15.501953125L17.17578125,15.76171875L20.828125,19.4140625C21.2041015625,19.787109375,21.224609375,20.388671875,20.875,20.78515625C20.5244140625,21.18359375,19.92578125,21.23828125,19.5078125,20.912109375L19.4140625,20.828125L15.76171875,17.17578125C12.837890625,19.48046875,8.75390625,19.61328125,5.685546875,17.50390625C2.6171875,15.396484375,1.279296875,11.53515625,2.3828125,7.978515625C3.4873046875,4.423828125,6.77734375,2,10.5,2M10.5,4C6.91015625,4,4,6.91015625,4,10.5C4,14.08984375,6.91015625,17,10.5,17C14.08984375,17,17,14.08984375,17,10.5C17,6.91015625,14.08984375,4,10.5,4M10.5,6C11.0068359375,6,11.43359375,6.37890625,11.4931640625,6.8828125L11.5,7L11.5,9.5L14,9.5C14.529296875,9.5,14.966796875,9.9140625,14.9970703125,10.44140625C15.0283203125,10.96875,14.642578125,11.4296875,14.1171875,11.4921875L14,11.5L11.5,11.5L11.5,14C11.5,14.529296875,11.0869140625,14.966796875,10.55859375,14.998046875C10.0302734375,15.02734375,9.5693359375,14.642578125,9.5068359375,14.1171875L9.5,14L9.5,11.5L7,11.5C6.470703125,11.5,6.033203125,11.0859375,6.0029296875,10.55859375C5.9716796875,10.03125,6.357421875,9.5703125,6.8828125,9.5078125L7,9.5L9.5,9.5L9.5,7C9.5,6.447265625,9.947265625,6,10.5,6" style="fill: rgb(3, 20, 22); fill-opacity: 1;"/></g></g></g></g></svg>