<svg width="24" xmlns="http://www.w3.org/2000/svg" height="24" id="screenshot-ea3e7a3d-5cb4-808e-8007-8ad70f465e82" viewBox="0 0 24 24" xmlns:xlink="http://www.w3.org/1999/xlink" fill="none" version="1.1"><g id="shape-ea3e7a3d-5cb4-808e-8007-8ad70f465e82" width="24" height="24" rx="0" ry="0" style="fill: rgb(0, 0, 0);"><g id="shape-ea3e7a3d-5cb4-808e-8007-8ad70f54c444" style="display: none;"><g class="fills" id="fills-ea3e7a3d-5cb4-808e-8007-8ad70f54c444"><rect width="24" height="24" x="0" transform="matrix(1.000000, 0.000000, 0.000000, 1.000000, 0.000000, 0.000000)" style="fill: none;" ry="0" fill="none" rx="0" y="0"/></g></g><g id="shape-ea3e7a3d-5cb4-808e-8007-8ad70f55941e" rx="0" ry="0" style="fill: rgb(0, 0, 0);"><g id="shape-ea3e7a3d-5cb4-808e-8007-8ad70f56dc17"><g class="fills" id="fills-ea3e7a3d-5cb4-808e-8007-8ad70f56dc17"><path d="M18,4L6.5,4C5,4,2,5,2,8C2,11,5,12,6.5,12L17.5,12C19,12,22,13,22,16C22,19,19,20,17.5,20L6,20" fill="none" stroke-linejoin="round" stroke-linecap="round" style="fill: none;"/></g><g fill="none" stroke-linejoin="round" stroke-linecap="round" id="strokes-1bbfac83-13d6-8023-8007-8ad77f751d61-ea3e7a3d-5cb4-808e-8007-8ad70f56dc17" class="strokes"><g class="stroke-shape"><path d="M18,4L6.5,4C5,4,2,5,2,8C2,11,5,12,6.5,12L17.5,12C19,12,22,13,22,16C22,19,19,20,17.5,20L6,20" style="fill: none; stroke-width: 2; stroke: rgb(3, 20, 22); stroke-opacity: 1;"/></g></g></g><g id="shape-ea3e7a3d-5cb4-808e-8007-8ad70f580eff"><g class="fills" id="fills-ea3e7a3d-5cb4-808e-8007-8ad70f580eff"><path d="M20,6C21.1044921875,6,22,5.10546875,22,4C22,2.89453125,21.1044921875,2,20,2C18.8955078125,2,18,2.89453125,18,4C18,5.10546875,18.8955078125,6,20,6ZM4,22C5.1044921875,22,6,21.10546875,6,20C6,18.89453125,5.1044921875,18,4,18C2.8955078125,18,2,18.89453125,2,20C2,21.10546875,2.8955078125,22,4,22Z" fill="none" stroke-linejoin="round" style="fill: none;"/></g><g fill="none" stroke-linejoin="round" id="strokes-1bbfac83-13d6-8023-8007-8ad77f76293d-ea3e7a3d-5cb4-808e-8007-8ad70f580eff" class="strokes"><g class="stroke-shape"><path d="M20,6C21.1044921875,6,22,5.10546875,22,4C22,2.89453125,21.1044921875,2,20,2C18.8955078125,2,18,2.89453125,18,4C18,5.10546875,18.8955078125,6,20,6ZM4,22C5.1044921875,22,6,21.10546875,6,20C6,18.89453125,5.1044921875,18,4,18C2.8955078125,18,2,18.89453125,2,20C2,21.10546875,2.8955078125,22,4,22Z" style="fill: none; stroke-width: 2; stroke: rgb(3, 20, 22); stroke-opacity: 1;"/></g></g></g></g></g></svg>